<svg xmlns="http://www.w3.org/2000/svg" xmlns:xlink="http://www.w3.org/1999/xlink" width="60" zoomAndPan="magnify" viewBox="0 0 45 37.5" height="50" preserveAspectRatio="xMidYMid meet" version="1.0"><defs><g/><clipPath id="98c6043ffe"><path d="M 11.785156 3.699219 L 33 3.699219 L 33 27.386719 L 11.785156 27.386719 Z M 11.785156 3.699219 " clip-rule="nonzero"/></clipPath><clipPath id="51399bb470"><path d="M 21 14 L 33.246094 14 L 33.246094 27.386719 L 21 27.386719 Z M 21 14 " clip-rule="nonzero"/></clipPath><clipPath id="6a02159e79"><path d="M 11.785156 3.699219 L 17 3.699219 L 17 17 L 11.785156 17 Z M 11.785156 3.699219 " clip-rule="nonzero"/></clipPath></defs><g clip-path="url(#98c6043ffe)"><path fill="#004aad" d="M 16.582031 20.347656 L 18.527344 18.367188 L 18.527344 18.363281 L 32.710938 3.785156 L 26.265625 3.785156 L 20.941406 9.582031 L 16.582031 14.324219 L 11.792969 19.539062 L 11.792969 27.519531 L 16.582031 27.519531 Z M 16.582031 20.347656 " fill-opacity="1" fill-rule="evenodd"/></g><g clip-path="url(#51399bb470)"><path stroke-linecap="butt" transform="matrix(0.308421, 0, 0, 0.308421, 11.783765, 3.775319)" fill-opacity="1" fill="#000000" fill-rule="evenodd" stroke-linejoin="miter" d="M 32.199705 47.412788 L 49.323192 76.986265 L 69.43569 76.986265 L 42.977876 36.317984 Z M 32.199705 47.412788 " stroke="#383336" stroke-width="0.06" stroke-opacity="1" stroke-miterlimit="2.613"/></g><g clip-path="url(#6a02159e79)"><path stroke-linecap="butt" transform="matrix(0.308421, 0, 0, 0.308421, 11.783765, 3.775319)" fill-opacity="1" fill="#000000" fill-rule="evenodd" stroke-linejoin="miter" d="M 0.0298411 41.814725 L 15.5575 24.906548 L 15.5575 0.0318969 L 0.0298411 0.0318969 Z M 0.0298411 41.814725 " stroke="#383336" stroke-width="0.06" stroke-opacity="1" stroke-miterlimit="2.613"/></g><g fill="#000000" fill-opacity="1"><g transform="translate(16.327268, 33.834788)"><g><path d="M 0.234375 0 L 0.234375 -5.4375 L 1.3125 -5.4375 L 1.3125 -3.265625 L 1.828125 -5.4375 L 2.921875 -5.4375 L 2.3125 -2.953125 L 3.046875 0 L 1.921875 0 L 1.328125 -2.625 L 1.328125 0 Z M 0.234375 0 "/></g></g></g><g fill="#000000" fill-opacity="1"><g transform="translate(19.314655, 33.834788)"><g><path d="M 1.5625 0.046875 C 0.644531 0.046875 0.1875 -0.429688 0.1875 -1.390625 L 0.1875 -3.25 C 0.1875 -3.6875 0.304688 -4.035156 0.546875 -4.296875 C 0.796875 -4.554688 1.132812 -4.6875 1.5625 -4.6875 C 2 -4.6875 2.335938 -4.554688 2.578125 -4.296875 C 2.828125 -4.035156 2.953125 -3.6875 2.953125 -3.25 L 2.953125 -1.390625 C 2.953125 -0.429688 2.488281 0.046875 1.5625 0.046875 Z M 1.5625 -0.796875 C 1.65625 -0.796875 1.722656 -0.828125 1.765625 -0.890625 C 1.804688 -0.960938 1.828125 -1.050781 1.828125 -1.15625 L 1.828125 -3.421875 C 1.828125 -3.691406 1.738281 -3.828125 1.5625 -3.828125 C 1.394531 -3.828125 1.3125 -3.691406 1.3125 -3.421875 L 1.3125 -1.15625 C 1.3125 -1.050781 1.332031 -0.960938 1.375 -0.890625 C 1.414062 -0.828125 1.476562 -0.796875 1.5625 -0.796875 Z M 1.5625 -0.796875 "/></g></g></g><g fill="#000000" fill-opacity="1"><g transform="translate(22.460265, 33.834788)"><g><path d="M 1.125 0.046875 C 0.863281 0.046875 0.660156 -0.015625 0.515625 -0.140625 C 0.378906 -0.265625 0.289062 -0.429688 0.25 -0.640625 C 0.207031 -0.859375 0.1875 -1.132812 0.1875 -1.46875 L 0.203125 -3.5625 C 0.203125 -3.894531 0.285156 -4.164062 0.453125 -4.375 C 0.617188 -4.582031 0.851562 -4.6875 1.15625 -4.6875 C 1.445312 -4.6875 1.671875 -4.585938 1.828125 -4.390625 L 1.828125 -5.46875 L 2.9375 -5.46875 L 2.9375 0 L 1.828125 0 L 1.828125 -0.5 C 1.765625 -0.3125 1.675781 -0.171875 1.5625 -0.078125 C 1.457031 0.00390625 1.3125 0.046875 1.125 0.046875 Z M 1.5625 -0.8125 C 1.664062 -0.8125 1.734375 -0.863281 1.765625 -0.96875 C 1.804688 -1.082031 1.828125 -1.226562 1.828125 -1.40625 L 1.828125 -3.34375 C 1.828125 -3.476562 1.804688 -3.59375 1.765625 -3.6875 C 1.722656 -3.78125 1.65625 -3.828125 1.5625 -3.828125 C 1.457031 -3.828125 1.382812 -3.78125 1.34375 -3.6875 C 1.3125 -3.601562 1.296875 -3.488281 1.296875 -3.34375 L 1.296875 -1.40625 C 1.296875 -1.007812 1.382812 -0.8125 1.5625 -0.8125 Z M 1.5625 -0.8125 "/></g></g></g><g fill="#000000" fill-opacity="1"><g transform="translate(25.612208, 33.834788)"><g><path d="M 1.0625 0.046875 C 0.707031 0.046875 0.460938 -0.0703125 0.328125 -0.3125 C 0.191406 -0.550781 0.125 -0.890625 0.125 -1.328125 C 0.125 -1.691406 0.171875 -1.96875 0.265625 -2.15625 C 0.359375 -2.351562 0.488281 -2.5 0.65625 -2.59375 C 0.832031 -2.6875 1.09375 -2.785156 1.4375 -2.890625 L 1.734375 -3 L 1.734375 -3.46875 C 1.734375 -3.59375 1.707031 -3.6875 1.65625 -3.75 C 1.613281 -3.8125 1.5625 -3.84375 1.5 -3.84375 C 1.4375 -3.84375 1.378906 -3.816406 1.328125 -3.765625 C 1.285156 -3.710938 1.265625 -3.640625 1.265625 -3.546875 L 1.265625 -3.265625 L 0.203125 -3.265625 L 0.203125 -3.421875 C 0.203125 -3.867188 0.304688 -4.191406 0.515625 -4.390625 C 0.722656 -4.585938 1.070312 -4.6875 1.5625 -4.6875 C 1.9375 -4.6875 2.242188 -4.582031 2.484375 -4.375 C 2.734375 -4.175781 2.859375 -3.894531 2.859375 -3.53125 L 2.859375 0 L 1.75 0 L 1.75 -0.546875 C 1.695312 -0.359375 1.609375 -0.210938 1.484375 -0.109375 C 1.367188 -0.00390625 1.226562 0.046875 1.0625 0.046875 Z M 1.5 -0.8125 C 1.582031 -0.8125 1.640625 -0.84375 1.671875 -0.90625 C 1.710938 -0.976562 1.734375 -1.066406 1.734375 -1.171875 L 1.734375 -2.46875 C 1.566406 -2.394531 1.441406 -2.3125 1.359375 -2.21875 C 1.285156 -2.125 1.25 -1.988281 1.25 -1.8125 L 1.25 -1.21875 C 1.25 -0.945312 1.332031 -0.8125 1.5 -0.8125 Z M 1.5 -0.8125 "/></g></g></g></svg>