<svg xmlns="http://www.w3.org/2000/svg" xmlns:xlink="http://www.w3.org/1999/xlink" width="60" zoomAndPan="magnify" viewBox="0 0 45 37.5" height="50" preserveAspectRatio="xMidYMid meet" version="1.0"><defs><g/><clipPath id="793fcf1cae"><path d="M 10.621094 5.757812 L 33.566406 5.757812 L 33.566406 22.039062 L 10.621094 22.039062 Z M 10.621094 5.757812 " clip-rule="nonzero"/></clipPath><clipPath id="c5d6b1c4ca"><path d="M 10.621094 17 L 27 17 L 27 22.039062 L 10.621094 22.039062 Z M 10.621094 17 " clip-rule="nonzero"/></clipPath></defs><g fill="#000000" fill-opacity="1"><g transform="translate(13.260037, 31.139017)"><g><path d="M 2.414062 -2.109375 L 1.125 -2.109375 C 1.0625 -2.109375 0.980469 -2.132812 0.980469 -2.34375 L 0.980469 -2.660156 C 0.980469 -2.738281 0.992188 -2.796875 1.015625 -2.839844 C 1.03125 -2.867188 1.058594 -2.894531 1.132812 -2.894531 L 2.875 -2.894531 C 2.910156 -2.894531 2.996094 -2.910156 2.996094 -3.042969 L 2.996094 -3.386719 C 2.996094 -3.519531 2.910156 -3.53125 2.875 -3.53125 L 1.027344 -3.53125 C 0.792969 -3.53125 0.621094 -3.453125 0.511719 -3.296875 C 0.398438 -3.140625 0.34375 -2.933594 0.34375 -2.6875 L 0.34375 -2.359375 C 0.34375 -2.066406 0.402344 -1.824219 0.511719 -1.675781 C 0.644531 -1.5 0.839844 -1.472656 1.019531 -1.472656 L 2.304688 -1.472656 C 2.371094 -1.472656 2.457031 -1.449219 2.457031 -1.238281 L 2.457031 -0.871094 C 2.457031 -0.792969 2.441406 -0.734375 2.417969 -0.691406 C 2.398438 -0.664062 2.375 -0.632812 2.300781 -0.632812 L 0.472656 -0.632812 C 0.433594 -0.632812 0.347656 -0.621094 0.347656 -0.488281 L 0.347656 -0.144531 C 0.347656 -0.0117188 0.433594 0 0.472656 0 L 2.402344 0 C 2.640625 0 2.816406 -0.0820312 2.925781 -0.238281 C 3.035156 -0.394531 3.089844 -0.59375 3.089844 -0.84375 L 3.089844 -1.222656 C 3.089844 -1.5 3.035156 -1.71875 2.921875 -1.871094 C 2.804688 -2.027344 2.636719 -2.109375 2.414062 -2.109375 Z M 2.414062 -2.109375 "/></g></g></g><g fill="#000000" fill-opacity="1"><g transform="translate(16.906328, 31.139017)"><g><path d="M 3.261719 -3.21875 C 3.175781 -3.324219 3.0625 -3.40625 2.925781 -3.457031 C 2.792969 -3.503906 2.628906 -3.53125 2.441406 -3.53125 L 1.398438 -3.53125 C 1.207031 -3.53125 1.050781 -3.503906 0.917969 -3.457031 C 0.78125 -3.40625 0.667969 -3.324219 0.582031 -3.21875 C 0.5 -3.109375 0.4375 -2.96875 0.398438 -2.796875 C 0.359375 -2.628906 0.34375 -2.429688 0.34375 -2.191406 L 0.34375 -1.339844 C 0.34375 -1.101562 0.359375 -0.894531 0.398438 -0.726562 C 0.4375 -0.558594 0.5 -0.414062 0.582031 -0.308594 C 0.667969 -0.195312 0.78125 -0.117188 0.917969 -0.0703125 C 1.046875 -0.0195312 1.207031 0.00390625 1.398438 0.00390625 L 2.441406 0.00390625 C 2.628906 0.00390625 2.792969 -0.0195312 2.925781 -0.0703125 C 3.0625 -0.117188 3.175781 -0.195312 3.261719 -0.304688 C 3.347656 -0.414062 3.40625 -0.558594 3.445312 -0.726562 C 3.480469 -0.894531 3.5 -1.101562 3.5 -1.339844 L 3.5 -2.191406 C 3.5 -2.425781 3.480469 -2.628906 3.445312 -2.796875 C 3.40625 -2.96875 3.347656 -3.109375 3.261719 -3.21875 Z M 2.863281 -2.261719 L 2.863281 -1.265625 C 2.863281 -1.140625 2.859375 -1.03125 2.839844 -0.945312 C 2.828125 -0.871094 2.800781 -0.800781 2.769531 -0.757812 C 2.738281 -0.710938 2.695312 -0.679688 2.640625 -0.664062 C 2.582031 -0.644531 2.511719 -0.632812 2.421875 -0.632812 L 1.417969 -0.632812 C 1.328125 -0.632812 1.253906 -0.644531 1.199219 -0.664062 C 1.144531 -0.679688 1.101562 -0.710938 1.070312 -0.757812 C 1.035156 -0.800781 1.015625 -0.871094 1 -0.945312 C 0.984375 -1.03125 0.976562 -1.140625 0.976562 -1.265625 L 0.976562 -2.261719 C 0.976562 -2.386719 0.984375 -2.492188 1 -2.578125 C 1.015625 -2.660156 1.035156 -2.726562 1.070312 -2.773438 C 1.101562 -2.816406 1.144531 -2.84375 1.199219 -2.867188 C 1.253906 -2.882812 1.328125 -2.894531 1.417969 -2.894531 L 2.421875 -2.894531 C 2.511719 -2.894531 2.582031 -2.882812 2.640625 -2.867188 C 2.695312 -2.84375 2.738281 -2.816406 2.769531 -2.773438 C 2.800781 -2.726562 2.828125 -2.660156 2.839844 -2.578125 C 2.859375 -2.492188 2.863281 -2.386719 2.863281 -2.261719 Z M 2.863281 -2.261719 "/></g></g></g><g fill="#000000" fill-opacity="1"><g transform="translate(20.963951, 31.139017)"><g><path d="M 3.304688 -3.53125 L 2.910156 -3.53125 C 2.871094 -3.53125 2.789062 -3.519531 2.789062 -3.386719 L 2.789062 -1.273438 C 2.789062 -1.144531 2.78125 -1.03125 2.769531 -0.953125 C 2.753906 -0.871094 2.730469 -0.804688 2.699219 -0.757812 C 2.664062 -0.714844 2.625 -0.6875 2.570312 -0.664062 C 2.515625 -0.648438 2.4375 -0.632812 2.347656 -0.632812 L 1.421875 -0.632812 C 1.332031 -0.632812 1.253906 -0.648438 1.199219 -0.664062 C 1.144531 -0.6875 1.105469 -0.714844 1.070312 -0.757812 C 1.042969 -0.804688 1.015625 -0.871094 1 -0.953125 C 0.984375 -1.03125 0.976562 -1.144531 0.976562 -1.273438 L 0.976562 -3.386719 C 0.976562 -3.519531 0.894531 -3.53125 0.855469 -3.53125 L 0.46875 -3.53125 C 0.429688 -3.53125 0.34375 -3.519531 0.34375 -3.386719 L 0.34375 -1.339844 C 0.34375 -1.101562 0.359375 -0.894531 0.398438 -0.726562 C 0.4375 -0.558594 0.5 -0.414062 0.585938 -0.308594 C 0.667969 -0.195312 0.785156 -0.121094 0.917969 -0.0703125 C 1.050781 -0.0195312 1.210938 0 1.402344 0 L 2.363281 0 C 2.554688 0 2.714844 -0.0195312 2.847656 -0.0703125 C 2.988281 -0.121094 3.097656 -0.195312 3.183594 -0.308594 C 3.269531 -0.414062 3.328125 -0.558594 3.367188 -0.726562 C 3.40625 -0.894531 3.421875 -1.101562 3.421875 -1.339844 L 3.421875 -3.386719 C 3.421875 -3.519531 3.34375 -3.53125 3.304688 -3.53125 Z M 3.304688 -3.53125 "/></g></g></g><g fill="#000000" fill-opacity="1"><g transform="translate(24.94445, 31.139017)"><g><path d="M 2.394531 -1.46875 C 2.308594 -1.609375 2.222656 -1.726562 2.136719 -1.808594 C 2.164062 -1.84375 2.191406 -1.875 2.21875 -1.917969 C 2.253906 -1.976562 2.292969 -2.039062 2.335938 -2.113281 L 3.042969 -3.355469 C 3.054688 -3.386719 3.058594 -3.417969 3.054688 -3.457031 C 3.042969 -3.503906 3.007812 -3.53125 2.957031 -3.53125 L 2.53125 -3.53125 C 2.484375 -3.53125 2.457031 -3.523438 2.4375 -3.503906 C 2.421875 -3.492188 2.402344 -3.476562 2.390625 -3.445312 L 1.742188 -2.300781 C 1.71875 -2.257812 1.691406 -2.222656 1.671875 -2.195312 C 1.648438 -2.167969 1.625 -2.148438 1.601562 -2.132812 C 1.578125 -2.121094 1.546875 -2.113281 1.511719 -2.109375 C 1.476562 -2.105469 1.429688 -2.097656 1.375 -2.097656 L 0.980469 -2.097656 L 0.980469 -3.378906 C 0.980469 -3.519531 0.894531 -3.53125 0.859375 -3.53125 L 0.46875 -3.53125 C 0.433594 -3.53125 0.34375 -3.519531 0.34375 -3.378906 L 0.34375 -0.144531 C 0.34375 -0.0117188 0.433594 0.00390625 0.46875 0.00390625 L 0.859375 0.00390625 C 0.894531 0.00390625 0.980469 -0.0117188 0.980469 -0.144531 L 0.980469 -1.464844 L 1.414062 -1.464844 C 1.515625 -1.464844 1.59375 -1.453125 1.644531 -1.421875 C 1.691406 -1.398438 1.738281 -1.339844 1.785156 -1.253906 L 2.457031 -0.0820312 C 2.46875 -0.0546875 2.484375 -0.0351562 2.503906 -0.0195312 C 2.519531 -0.00390625 2.550781 0.00390625 2.59375 0.00390625 L 3.054688 0.00390625 C 3.113281 0.00390625 3.148438 -0.03125 3.152344 -0.0859375 C 3.15625 -0.128906 3.152344 -0.164062 3.136719 -0.183594 Z M 2.394531 -1.46875 "/></g></g></g><g fill="#000000" fill-opacity="1"><g transform="translate(28.659296, 31.139017)"><g><path d="M 0.855469 -3.53125 L 0.460938 -3.53125 C 0.429688 -3.53125 0.34375 -3.511719 0.34375 -3.378906 L 0.34375 -0.144531 C 0.34375 -0.0117188 0.429688 0.00390625 0.460938 0.00390625 L 0.855469 0.00390625 C 0.890625 0.00390625 0.976562 -0.0117188 0.976562 -0.144531 L 0.976562 -3.378906 C 0.976562 -3.511719 0.890625 -3.53125 0.855469 -3.53125 Z M 0.855469 -3.53125 "/></g></g></g><g fill="#000000" fill-opacity="1"><g transform="translate(30.193226, 31.139017)"><g><path d="M 0.855469 -3.53125 L 0.460938 -3.53125 C 0.429688 -3.53125 0.34375 -3.511719 0.34375 -3.378906 L 0.34375 -0.144531 C 0.34375 -0.0117188 0.429688 0.00390625 0.460938 0.00390625 L 0.855469 0.00390625 C 0.890625 0.00390625 0.976562 -0.0117188 0.976562 -0.144531 L 0.976562 -3.378906 C 0.976562 -3.511719 0.890625 -3.53125 0.855469 -3.53125 Z M 0.855469 -3.53125 "/></g></g></g><g clip-path="url(#793fcf1cae)"><path fill="#000000" d="M 26.722656 5.804688 C 25.671875 6.855469 24.707031 7.835938 23.714844 8.789062 C 23.570312 8.929688 23.292969 8.992188 23.074219 8.996094 C 20.703125 9.007812 18.332031 8.992188 15.960938 9.007812 C 14.597656 9.019531 13.777344 10.320312 14.394531 11.453125 C 14.679688 11.972656 15.121094 12.3125 15.71875 12.320312 C 17.921875 12.339844 20.128906 12.335938 22.335938 12.320312 C 22.519531 12.316406 22.742188 12.167969 22.882812 12.023438 C 24.855469 10.070312 26.808594 8.097656 28.789062 6.15625 C 28.992188 5.953125 29.347656 5.808594 29.636719 5.800781 C 30.941406 5.761719 32.246094 5.785156 33.550781 5.785156 C 30.855469 8.460938 28.171875 11.128906 25.492188 13.792969 C 28.308594 16.585938 31.003906 19.257812 33.695312 21.929688 C 33.660156 21.996094 33.625 22.0625 33.589844 22.132812 C 33.21875 22.132812 32.847656 22.132812 32.476562 22.132812 C 31.539062 22.132812 30.601562 22.113281 29.664062 22.140625 C 29.28125 22.152344 29.015625 22.027344 28.75 21.757812 C 26.824219 19.8125 24.890625 17.871094 22.9375 15.953125 C 22.730469 15.75 22.375 15.601562 22.085938 15.597656 C 20.007812 15.566406 17.929688 15.617188 15.851562 15.570312 C 13.921875 15.527344 12.417969 14.660156 11.523438 12.921875 C 10.640625 11.207031 10.761719 9.5 11.832031 7.902344 C 12.664062 6.65625 13.875 5.859375 15.367188 5.828125 C 19.113281 5.753906 22.863281 5.804688 26.722656 5.804688 Z M 26.722656 5.804688 " fill-opacity="1" fill-rule="nonzero"/></g><g clip-path="url(#c5d6b1c4ca)"><path fill="#000000" d="M 10.996094 17.273438 C 11.90625 17.699219 12.78125 18.210938 13.722656 18.519531 C 14.511719 18.78125 15.375 18.902344 16.207031 18.917969 C 18.488281 18.960938 20.765625 18.910156 23.046875 18.925781 C 23.320312 18.929688 23.652344 19.070312 23.851562 19.261719 C 24.8125 20.15625 25.738281 21.09375 26.761719 22.101562 C 26.472656 22.117188 26.332031 22.132812 26.191406 22.132812 C 22.734375 22.132812 19.28125 22.144531 15.824219 22.125 C 13.222656 22.113281 11.109375 20.101562 10.980469 17.570312 C 10.972656 17.449219 10.992188 17.328125 10.996094 17.273438 Z M 10.996094 17.273438 " fill-opacity="1" fill-rule="nonzero"/></g></svg>