<svg xmlns="http://www.w3.org/2000/svg" xmlns:xlink="http://www.w3.org/1999/xlink" width="60" zoomAndPan="magnify" viewBox="0 0 45 37.5" height="50" preserveAspectRatio="xMidYMid meet" version="1.0"><defs><clipPath id="4f2d404bd0"><path d="M 8.246094 8.488281 L 37 8.488281 L 37 28.472656 L 8.246094 28.472656 Z M 8.246094 8.488281 " clip-rule="nonzero"/></clipPath><clipPath id="8a92dad344"><path d="M 8.246094 22 L 29 22 L 29 28.472656 L 8.246094 28.472656 Z M 8.246094 22 " clip-rule="nonzero"/></clipPath></defs><g clip-path="url(#4f2d404bd0)"><path fill="#000000" d="M 28.199219 8.546875 C 26.898438 9.847656 25.703125 11.066406 24.472656 12.246094 C 24.292969 12.421875 23.949219 12.496094 23.679688 12.5 C 20.742188 12.515625 17.800781 12.492188 14.863281 12.515625 C 13.175781 12.527344 12.15625 14.144531 12.925781 15.546875 C 13.277344 16.191406 13.824219 16.609375 14.5625 16.617188 C 17.296875 16.644531 20.03125 16.640625 22.761719 16.617188 C 22.992188 16.617188 23.265625 16.429688 23.441406 16.253906 C 25.886719 13.832031 28.304688 11.386719 30.757812 8.980469 C 31.015625 8.730469 31.453125 8.550781 31.8125 8.539062 C 33.425781 8.496094 35.042969 8.519531 36.660156 8.519531 C 33.320312 11.839844 29.996094 15.144531 26.675781 18.445312 C 30.164062 21.90625 33.503906 25.214844 36.839844 28.527344 C 36.796875 28.609375 36.753906 28.691406 36.707031 28.777344 C 36.25 28.777344 35.789062 28.777344 35.328125 28.777344 C 34.167969 28.777344 33.003906 28.753906 31.84375 28.785156 C 31.371094 28.800781 31.042969 28.644531 30.714844 28.3125 C 28.324219 25.902344 25.929688 23.496094 23.507812 21.121094 C 23.253906 20.867188 22.8125 20.6875 22.453125 20.679688 C 19.878906 20.644531 17.304688 20.703125 14.730469 20.644531 C 12.335938 20.59375 10.476562 19.519531 9.363281 17.363281 C 8.269531 15.238281 8.425781 13.125 9.746094 11.144531 C 10.78125 9.597656 12.28125 8.613281 14.128906 8.578125 C 18.769531 8.484375 23.414062 8.546875 28.199219 8.546875 Z M 28.199219 8.546875 " fill-opacity="1" fill-rule="nonzero"/></g><g clip-path="url(#8a92dad344)"><path fill="#000000" d="M 8.714844 22.753906 C 9.84375 23.285156 10.925781 23.917969 12.09375 24.300781 C 13.070312 24.625 14.140625 24.773438 15.171875 24.792969 C 17.996094 24.847656 20.820312 24.78125 23.644531 24.804688 C 23.980469 24.808594 24.394531 24.984375 24.644531 25.21875 C 25.835938 26.332031 26.980469 27.492188 28.246094 28.738281 C 27.890625 28.757812 27.714844 28.777344 27.542969 28.777344 C 23.257812 28.777344 18.976562 28.792969 14.695312 28.769531 C 11.472656 28.75 8.851562 26.261719 8.695312 23.121094 C 8.6875 22.972656 8.710938 22.824219 8.714844 22.753906 Z M 8.714844 22.753906 " fill-opacity="1" fill-rule="nonzero"/></g></svg>