<svg xmlns="http://www.w3.org/2000/svg" xmlns:xlink="http://www.w3.org/1999/xlink" width="60" zoomAndPan="magnify" viewBox="0 0 45 37.5" height="50" preserveAspectRatio="xMidYMid meet" version="1.0"><defs><clipPath id="2536258dd9"><path d="M 10.257812 4.847656 L 34.683594 4.847656 L 34.683594 32.230469 L 10.257812 32.230469 Z M 10.257812 4.847656 " clip-rule="nonzero"/></clipPath><clipPath id="4aa0f1b6dc"><path d="M 21 17 L 34.683594 17 L 34.683594 32.230469 L 21 32.230469 Z M 21 17 " clip-rule="nonzero"/></clipPath><clipPath id="164cb30e63"><path d="M 10.257812 4.847656 L 16 4.847656 L 16 20 L 10.257812 20 Z M 10.257812 4.847656 " clip-rule="nonzero"/></clipPath></defs><g clip-path="url(#2536258dd9)"><path fill="#004aad" d="M 15.742188 23.859375 L 17.960938 21.597656 L 17.960938 21.59375 L 34.167969 4.9375 L 26.804688 4.9375 L 20.71875 11.5625 L 15.742188 16.980469 L 10.269531 22.9375 L 10.269531 32.058594 L 15.742188 32.058594 Z M 15.742188 23.859375 " fill-opacity="1" fill-rule="evenodd"/></g><g clip-path="url(#4aa0f1b6dc)"><path stroke-linecap="butt" transform="matrix(0.352363, 0, 0, 0.352363, 10.25828, 4.92867)" fill-opacity="1" fill="#000000" fill-rule="evenodd" stroke-linejoin="miter" d="M 32.203145 47.406098 L 49.319739 76.994304 L 69.42952 76.994304 L 42.978618 36.320221 Z M 32.203145 47.406098 " stroke="#383336" stroke-width="0.06" stroke-opacity="1" stroke-miterlimit="2.613"/></g><g clip-path="url(#164cb30e63)"><path stroke-linecap="butt" transform="matrix(0.352363, 0, 0, 0.352363, 10.25828, 4.92867)" fill-opacity="1" fill="#000000" fill-rule="evenodd" stroke-linejoin="miter" d="M 0.0319306 41.818816 L 15.563244 24.912854 L 15.563244 0.0250605 L 0.0319306 0.0250605 Z M 0.0319306 41.818816 " stroke="#383336" stroke-width="0.06" stroke-opacity="1" stroke-miterlimit="2.613"/></g></svg>